<?xml version="1.0" encoding="utf-8"?>
<!-- Generator: Adobe Illustrator 21.0.0, SVG Export Plug-In . SVG Version: 6.00 Build 0)  -->
<svg version="1.1" id="Layer_1" xmlns="http://www.w3.org/2000/svg" xmlns:xlink="http://www.w3.org/1999/xlink" x="0px" y="0px"
	 viewBox="0 0 104.6 25.3" style="enable-background:new 0 0 104.6 25.3;" xml:space="preserve">
<style type="text/css">
	.st0{fill:#313338;}
</style>
<g>
	<path class="st0" d="M14.1,1.2c1.4,0.8,2.5,1.9,3.3,3.3c0.8,1.4,1.2,3,1.2,4.8v6.5c0,1.8-0.4,3.4-1.2,4.8c-0.8,1.4-1.9,2.6-3.3,3.4
		c-1.4,0.8-2.9,1.2-4.6,1.2c-1.7,0-3.3-0.3-4.6-1c-1.3-0.7-2.4-1.5-3.3-2.7c-0.2-0.2-0.3-0.4-0.3-0.7c0-0.3,0.1-0.5,0.3-0.6
		c0.2-0.1,0.4-0.2,0.6-0.2c0.4,0,0.6,0.1,0.9,0.4c0.7,0.9,1.6,1.6,2.7,2.1c1.1,0.5,2.3,0.8,3.7,0.8c1.3,0,2.6-0.3,3.6-1
		c1.1-0.7,1.9-1.6,2.5-2.7c0.6-1.2,0.9-2.5,0.9-3.9v-1.5c-0.6,1.3-1.6,2.3-2.9,3.1c-1.3,0.8-2.7,1.1-4.4,1.1c-1.8,0-3.4-0.4-4.8-1.2
		c-1.4-0.8-2.5-1.9-3.3-3.3C0.4,12.7,0,11.1,0,9.3C0,7.5,0.4,6,1.2,4.5C2,3.1,3.2,2,4.6,1.2C6,0.4,7.6,0,9.3,0
		C11.1,0,12.7,0.4,14.1,1.2z M13,15.7c1.1-0.6,2-1.5,2.6-2.6c0.6-1.1,0.9-2.4,0.9-3.8c0-1.4-0.3-2.7-0.9-3.8c-0.6-1.1-1.5-2-2.6-2.6
		c-1.1-0.6-2.4-0.9-3.7-0.9c-1.4,0-2.7,0.3-3.8,0.9c-1.1,0.6-2,1.5-2.6,2.6C2.3,6.6,2,7.9,2,9.3c0,1.4,0.3,2.7,0.9,3.8
		c0.6,1.1,1.5,2,2.6,2.6c1.1,0.6,2.4,0.9,3.8,0.9C10.7,16.7,11.9,16.4,13,15.7z"/>
	<path class="st0" d="M26.1,17.3c-1.4-0.8-2.5-1.9-3.3-3.3c-0.8-1.4-1.2-3-1.2-4.7c0-1.7,0.4-3.3,1.2-4.7c0.8-1.4,1.9-2.5,3.3-3.3
		c1.4-0.8,3-1.2,4.7-1.2c1.7,0,3.3,0.4,4.7,1.2C36.9,2,38,3.1,38.9,4.5c0.8,1.4,1.2,3,1.2,4.7c0,1.7-0.4,3.3-1.2,4.7
		c-0.8,1.4-1.9,2.5-3.3,3.3c-1.4,0.8-3,1.2-4.7,1.2C29.1,18.5,27.5,18.1,26.1,17.3z M34.5,15.7c1.1-0.6,2-1.5,2.6-2.7
		c0.6-1.1,0.9-2.4,0.9-3.8c0-1.4-0.3-2.7-0.9-3.8c-0.6-1.1-1.5-2-2.6-2.7c-1.1-0.7-2.3-1-3.7-1c-1.4,0-2.6,0.3-3.7,1
		c-1.1,0.7-2,1.5-2.6,2.7c-0.6,1.1-1,2.4-1,3.8c0,1.4,0.3,2.7,1,3.8c0.6,1.1,1.5,2,2.6,2.7c1.1,0.6,2.3,1,3.7,1
		C32.2,16.7,33.4,16.4,34.5,15.7z"/>
	<path class="st0" d="M47.6,17.3c-1.4-0.8-2.5-1.9-3.3-3.3c-0.8-1.4-1.2-3-1.2-4.7c0-1.7,0.4-3.3,1.2-4.7c0.8-1.4,1.9-2.5,3.3-3.3
		C49,0.4,50.6,0,52.4,0c1.7,0,3.3,0.4,4.7,1.2c1.4,0.8,2.5,1.9,3.3,3.3c0.8,1.4,1.2,3,1.2,4.7c0,1.7-0.4,3.3-1.2,4.7
		c-0.8,1.4-1.9,2.5-3.3,3.3c-1.4,0.8-3,1.2-4.7,1.2C50.6,18.5,49,18.1,47.6,17.3z M56.1,15.7c1.1-0.6,2-1.5,2.6-2.7
		c0.6-1.1,0.9-2.4,0.9-3.8c0-1.4-0.3-2.7-0.9-3.8c-0.6-1.1-1.5-2-2.6-2.7c-1.1-0.7-2.3-1-3.7-1c-1.4,0-2.6,0.3-3.7,1
		c-1.1,0.7-2,1.5-2.6,2.7c-0.6,1.1-1,2.4-1,3.8c0,1.4,0.3,2.7,1,3.8c0.6,1.1,1.5,2,2.6,2.7c1.1,0.6,2.3,1,3.7,1
		C53.7,16.7,55,16.4,56.1,15.7z"/>
	<path class="st0" d="M75.1,1.1c0-0.6-0.5-1.1-1.1-1c-0.9,0.1-1.7,0.3-2.5,0.7c-1.1,0.5-2.2,1.2-3,2c-0.9,0.9-1.5,1.9-2,3
		c-0.5,1.2-0.7,2.4-0.7,3.7v8c0,0.6,0.5,1,1,1h0c0.6,0,1-0.5,1-1v-8c0-1,0.2-2,0.6-2.9c0.4-0.9,0.9-1.7,1.6-2.4
		c0.7-0.7,1.5-1.2,2.4-1.6c0.6-0.3,1.3-0.4,2-0.5C74.7,2,75.1,1.6,75.1,1.1L75.1,1.1z"/>
	<path class="st0" d="M104.6,6.8c0-1-0.2-1.9-0.5-2.7l0,0c-0.3-0.8-0.8-1.6-1.4-2.2c-0.6-0.6-1.4-1.1-2.2-1.4
		C99.6,0.2,98.6,0,97.6,0c-1.5,0-2.9,0.4-4,1.1c-0.9,0.5-1.6,1.3-2.1,2.1c-0.5-0.8-1.2-1.5-2.1-2.1C88.3,0.4,87,0,85.4,0
		c-1,0-2,0.2-2.9,0.5c-0.9,0.3-1.6,0.8-2.2,1.4c-0.6,0.6-1.1,1.3-1.4,2.2c-0.3,0.8-0.5,1.7-0.5,2.7v10.7c0,0.6,0.5,1,1,1h0
		c0.6,0,1-0.5,1-1V6.8c0-0.7,0.1-1.4,0.3-2c0.2-0.6,0.6-1.1,1-1.6c0.4-0.4,0.9-0.8,1.6-1c0.6-0.2,1.3-0.4,2.1-0.4
		c0.7,0,1.4,0.1,2,0.4c0.6,0.2,1.2,0.6,1.6,1c0.4,0.4,0.8,1,1,1.6c0.3,0.6,0.4,1.3,0.4,2v10.7c0,0.6,0.5,1,1,1h0c0.6,0,1-0.5,1-1
		V6.8c0-0.7,0.1-1.4,0.4-2c0.3-0.6,0.6-1.1,1-1.6c0.4-0.4,1-0.8,1.6-1c0.6-0.2,1.3-0.4,2.1-0.4c0.8,0,1.5,0.1,2.1,0.4
		c0.6,0.2,1.1,0.6,1.6,1c0.4,0.4,0.8,1,1,1.6c0.2,0.6,0.3,1.3,0.3,2l0,10.7c0,0.6,0.5,1,1,1l0,0c0.6,0,1-0.5,1-1V6.8z"/>
</g>
</svg>
